<svg xmlns="http://www.w3.org/2000/svg" version="1.1" xmlns:xlink="http://www.w3.org/1999/xlink" xmlns:svgjs="http://svgjs.com/svgjs" width="512" height="512"><svg version="1.1" id="SvgjsSvg1000" xmlns="http://www.w3.org/2000/svg" xmlns:xlink="http://www.w3.org/1999/xlink" x="0px" y="0px" viewBox="0 0 512 512" style="enable-background:new 0 0 512 512;" xml:space="preserve">
<style type="text/css">
	.st0{fill:#739FFF;stroke:#000000;stroke-miterlimit:10;}
	.st1{fill:#FFFFFF;stroke:#000000;stroke-miterlimit:10;}
</style>
<g>
	<ellipse class="st0" cx="256" cy="256.2" rx="256" ry="254.68"></ellipse>
	<g>
		<path class="st1" d="M34.97,383.34c-0.64,0.51,1.49,3.32,2.23,4.29c21.77,28.42,47.14,35.78,47.14,35.78
			c13.53,3.93,25.12,3.68,30.27,3.54c3.14-0.09,9.15-0.41,21.34-2.79c15.33-2.99,26.59-6.55,38.83-10.5
			c32.1-10.37,30.05-10.28,43.3-14.25c14.45-4.33,27.2-8.15,44.66-11.25c12.3-2.18,27.43-4.79,47.64-4.61
			c8.44,0.08,27.46,0.73,50.74,6.32c4.45,1.07,19.48,4.82,37.96,12.75c26.03,11.17,44.24,24.32,45.41,23.04
			c0.39-0.43-1.44-2.2-2.85-3.54c-15.92-15.05-27.29-22.61-27.29-22.61c-7.69-5.11-16.34-10.81-29.03-17.25
			c-7.14-3.62-17.96-9.06-33.12-14.04c-10.06-3.3-23.95-7.03-41.06-9.21l-4.84-47.57l-106.94,30l5.58-57.11l95.9-26.68l-5.71-54.75
			l-83.99,23.89l5.58-57.21l72.95-20.14c-1.12-17.33-2.07-24.73-2.85-27.32c-0.08-0.25-0.35-1.11-0.25-2.25
			c0.31-3.58,3.99-5.98,4.71-6.43c1.78-1.11,3.62-1.6,4.47-1.82c0.86-0.23,1.51-0.34,2.73-0.54c1.26-0.21,3.03-0.46,5.21-0.64
			l5.95-8.04h-22.83l0.12-51.75h20.47l0.87-3.32c-3.46-0.85-6.19-1.45-7.94-1.82c-4.58-0.98-7.43-1.45-9.92-3.64
			c-0.41-0.36-0.66-0.64-0.87-0.86c-2.56-2.75-7.17-7.09-10.42-9.54c-5.19-3.9-14.5-8.64-20.47-8.46c-0.6,0.02-2.38,0.12-4.09-0.75
			c-2.06-1.05-2.87-2.91-3.23-3.75c-3.29-7.82-5.08-16.14-6.7-16.18c-0.31-0.01-0.64,0.29-1.86,3.21
			c-2.95,7.07-4.43,10.61-5.33,13.5c-0.09,0.29-0.32,1.02-0.99,1.71c-1.02,1.05-2.43,1.37-2.98,1.5c-2.83,0.66-5.55,1.72-8.44,2.14
			c-8.65,1.28-15.51,6.82-16.62,7.71c-1.63,1.32-4.51,3.92-6.2,5.46c-3.07,2.79-3.08,2.92-4.09,3.64c-2.01,1.43-4.95,3.53-9.06,4.07
			c-0.93,0.12-3.64,0.4-6.58,1.29c-0.42,0.13-1.25,0.39-1.74,1.07c-0.63,0.87-0.68,2.39,0.37,3c0.78,0.45,1.77,0.17,1.98,0.11
			l18.61,0.11l0.25,51.86l-22.83-0.11c1.05,1.68,2.63,4.1,4.34,6.32c0.26,0.34,0.65,0.84,1.36,1.29c1.67,1.05,3.52,0.83,4.96,0.86
			c4.25,0.09,7.49,2.47,8.06,2.89c2.84,2.08,3.77,5.06,4.09,6.96l-25.93,253.6l-0.37,1.61l-1.12,0.96c-1.13,0.4-3.07,1.08-5.46,1.93
			c-12.42,4.43-21.76,8.03-41.56,15.43c-8.35,3.12-9.83,3.65-12.53,4.39c-11.24,3.08-20.31,3.38-22.45,3.43
			c-4.88,0.12-15.74,0.29-28.04-3.86c-8.11-2.73-15.2-6.79-17.49-8.14C40.59,386.51,35.8,382.67,34.97,383.34z"></path>
	</g>
	<rect x="223.41" y="50.99" class="st0" width="44.63" height="48.01"></rect>
</g>
</svg><style>@media (prefers-color-scheme: light) { :root { filter: none; } }
</style></svg>